PathFileType        4      (X/Y/Z)      C:\Users\cpontonn\Documents\TRAVAIL - COURS\FORMATION DOCTORALE\COURS AUTOMNE\DATA\ESCRIME PROPRE\C3Ds\trial10.trc         
DataRate	CameraRate	NumFrames	NumMarkers	Units	OrigDataRate	OrigDataStartFrame	OrigNumFrames
250.0	250.0	4	45	mm	250.0	442	883
Frame#	Time	LCAR			LFHD			LBHD			RFHD			RBHD			C7			T10			CLAV			STRN			LSHO			LUPA			LRAD			LHUM			LWRB			LWRA			RSHO			RBAC			RUPA			RRAD			RHUM			RWRB			RWRA			RCAR			LFWT			LBWT			RFWT			RBWT			LTHI			LKNE			LKNI			LANE			LANI			LHEE			LTAR			LTARI			LTOE			RTHI			RKNE			RKNI			RANE			RANI			RHEE			RTAR			RTARI			RTOE			
		X1	Y1	Z1	X2	Y2	Z2	X3	Y3	Z3	X4	Y4	Z4	X5	Y5	Z5	X6	Y6	Z6	X7	Y7	Z7	X8	Y8	Z8	X9	Y9	Z9	X10	Y10	Z10	X11	Y11	Z11	X12	Y12	Z12	X13	Y13	Z13	X14	Y14	Z14	X15	Y15	Z15	X16	Y16	Z16	X17	Y17	Z17	X18	Y18	Z18	X19	Y19	Z19	X20	Y20	Z20	X21	Y21	Z21	X22	Y22	Z22	X23	Y23	Z23	X24	Y24	Z24	X25	Y25	Z25	X26	Y26	Z26	X27	Y27	Z27	X28	Y28	Z28	X29	Y29	Z29	X30	Y30	Z30	X31	Y31	Z31	X32	Y32	Z32	X33	Y33	Z33	X34	Y34	Z34	X35	Y35	Z35	X36	Y36	Z36	X37	Y37	Z37	X38	Y38	Z38	X39	Y39	Z39	X40	Y40	Z40	X41	Y41	Z41	X42	Y42	Z42	X43	Y43	Z43	X44	Y44	Z44	X45	Y45	Z45	
442	1.764	1898.01221	1081.18201	271.45705999999996	1199.92285	1476.79932	212.21931	1110.07068	1437.73438	181.08263000000002	1162.73328	1488.4436	424.79068000000007	1054.49353	1432.09424	413.9596900000001	1038.66895	1295.65906	225.35187000000002	1017.47461	1034.78418	138.60625	1129.01587	1202.10327	353.72061	1141.6272	1043.32043	370.78125	1243.22412	1248.1687	199.22905	1339.54358	1198.40393	248.18465	1495.13257	1087.06628	196.05843999999996	1463.33191	1034.1322	253.21941999999999	1748.89453	1000.38733	274.21746999999993	1757.18091	1101.27612	289.32662999999997	919.5451	1244.72144	377.03494	902.36346	1172.95789	234.69850000000002	872.68445	1128.96082	538.8095700000001	796.2207	1062.54492	595.3378300000002	824.74683	979.33777	563.4835200000001	1016.73389	1093.38062	754.59912	1048.9093	1133.52271	674.64447	1072.04138	1171.68433	745.30774	1231.60022	820.34308	234.51313999999996	1044.65625	827.7395	108.52913999999998	1049.36707	809.82086	376.64557	985.91382	827.25867	154.6909	1338.80029	720.94403	134.04508999999996	1534.31677	530.26965	174.46636999999996	1508.18799	494.16656	315.36690999999996	1391.83459	148.93575	157.07308999999992	1375.61768	160.83100999999996	251.75692999999993	1302.82605	127.94712999999999	181.79925999999992	1507.43445	53.541229999999985	174.1165599999999	1482.64685	71.46649999999998	277.2972999999999	1560.14673	59.00663999999998	266.0913999999999	936.3996	463.57827999999995	517.2334599999999	835.01111	410.51476999999994	471.48089999999996	952.32684	331.28442	457.30648999999994	685.37103	115.94633999999999	195.01030999999998	764.11719	59.94469999999998	227.68627999999995	726.44037	65.79989999999998	133.36713999999995	595.81567	52.601599999999976	309.03274999999996	705.37714	46.33662999999998	341.05349999999993	655.19568	50.76569999999998	398.5257899999999	
443	1.768	1902.25574	1080.15442	272.87819999999994	1203.88342	1475.06091	212.54333	1114.12195	1435.896	181.11894000000004	1166.04675	1486.64966	425.05484000000007	1057.94421	1430.15735	413.85889000000003	1042.61304	1293.94055	225.15926000000002	1021.4353	1033.17554	138.18547	1132.46631	1200.26379	353.85068	1144.73975	1041.29468	370.81863	1246.99219	1246.51624	199.20724	1343.55334	1197.39478	248.22626	1499.24365	1085.90356	197.41703999999996	1467.09094	1033.27869	254.50629999999998	1752.97656	999.61346	276.43343999999996	1761.4176	1100.6416	290.8619699999999	922.96088	1243.4624	376.08533	906.24615	1171.31995	234.06126000000003	874.48975	1129.72278	538.0336300000001	797.67743	1063.83948	594.9398800000001	826.71509	980.38873	564.4315800000002	1016.9837	1096.33215	755.98761	1049.94421	1135.31665	675.91412	1072.50439	1174.44556	746.18384	1235.23438	818.81458	234.70307999999997	1048.95691	826.71313	107.95064999999998	1052.45349	808.16205	375.83533	990.02734	825.82837	153.59772	1343.22192	721.04962	133.93986999999998	1539.88611	531.52704	174.20356999999996	1513.45764	494.90607	314.7217999999999	1399.84521	149.51569	155.8292999999999	1383.52319	161.16041999999996	250.5620299999999	1310.9292	127.81895999999999	180.49401999999992	1516.06726	54.89873999999999	172.7559799999999	1491.03674	72.39702999999999	276.00295999999986	1568.71802	60.690119999999986	264.4631699999999	937.81885	462.83687999999995	516.7911999999999	836.5069	410.1419399999999	470.83199999999994	953.30792	330.20029	457.65081999999995	685.58795	115.84034999999999	194.97588999999996	764.27643	59.655439999999984	227.56763999999995	726.41479	65.70979999999999	133.35248999999993	595.73444	52.61331999999998	309.05709999999993	705.38	46.34049999999998	341.04680999999994	655.20435	50.79387999999998	398.52419999999995	
444	1.772	1906.55762	1079.03979	274.34356999999994	1207.98389	1473.32458	212.87521	1118.36133	1434.08752	181.18170000000003	1169.5658	1484.78027	425.25824000000006	1061.52881	1428.24341	413.74991000000006	1046.66174	1292.25403	225.00276000000002	1025.50891	1031.59949	137.75917	1135.98853	1198.43604	354.00195	1148.04529	1039.26233	370.88055	1251.01685	1244.7998	199.16666	1347.64246	1196.24561	248.31502	1503.57324	1084.81995	198.75538999999998	1471.1095	1032.35352	255.68834999999999	1757.19666	999.03241	278.24868999999995	1765.8241	1099.96814	292.28551999999996	926.56622	1242.20447	375.1445	910.25513	1169.66541	233.52820000000003	876.35651	1130.40283	537.2605000000001	799.11969	1065.151	594.4680200000001	828.63086	981.43262	565.2319900000001	1017.12292	1099.2052	757.3338	1050.75964	1137.17407	677.11243	1072.93701	1177.09375	747.06641	1238.97229	817.29462	234.76653999999996	1053.23718	825.50452	107.29741999999999	1055.60522	806.46039	375.14362	994.18536	824.37775	152.67055	1347.57788	721.16986	133.78725999999997	1545.53198	532.82983	173.96048999999994	1518.79114	495.64029	314.11342999999994	1408.36523	149.95695	154.5629099999999	1391.82813	161.13625999999996	249.4210699999999	1319.62048	127.43199999999999	179.1042899999999	1525.37488	56.327929999999995	171.29937999999993	1500.09607	73.39234999999998	274.5608799999999	1577.96899	62.38418999999998	263.1366599999999	939.31921	462.03072999999995	516.3251999999999	837.94751	409.70043999999996	470.16973999999993	954.35278	329.20062	457.97954999999996	685.87811	115.72163999999998	194.94971999999999	764.27594	59.19054999999999	227.67792999999995	726.41132	65.58819999999999	133.33207999999993	595.72369	52.68268999999998	309.06530999999995	705.34631	46.403219999999976	341.0494699999999	655.22449	50.80382999999998	398.49953999999997	
445	1.776	1910.96021	1078.03015	275.75573999999995	1212.25903	1471.57385	213.16492	1122.74475	1432.33044	181.25981000000002	1173.26697	1482.94324	425.41202000000004	1065.26355	1426.35803	413.5798300000001	1050.85327	1290.5752	224.88855000000004	1029.66138	1030.03735	137.43056	1139.71692	1196.58301	354.11011	1151.55713	1037.29626	371.02505	1255.24097	1243.04028	199.1337	1351.85938	1194.95789	248.41646	1508.05688	1083.83618	200.04291999999998	1475.4386	1031.27539	256.75127999999995	1761.53796	998.258	280.13683999999995	1770.3009	1099.2594	293.61702999999994	930.32153	1241.06616	374.22455	914.38672	1168.12256	232.90813000000003	878.26642	1131.04773	536.5169100000002	800.59015	1066.48108	593.8370400000001	830.50317	982.49719	565.9448200000002	1017.25946	1101.96545	758.60577	1051.64001	1139.62476	678.27112	1073.36475	1179.64648	747.95642	1242.68542	815.97559	234.79503999999997	1057.50977	824.24817	106.61339999999998	1058.84937	804.69623	374.48706	998.38867	822.92603	151.78435	1351.84753	721.25574	133.57792999999998	1551.20337	534.2041	173.73411999999993	1524.14001	496.40552	313.5403099999999	1417.37109	150.22142	153.2902699999999	1400.64832	161.08939999999998	248.09432999999993	1328.85181	126.70626999999999	177.7209499999999	1535.30493	57.981429999999996	169.66076999999993	1509.77087	74.52648999999998	273.07308999999987	1587.77734	64.07090999999998	261.9439399999999	940.87415	461.19622999999996	515.8591899999999	839.58105	409.3568399999999	469.39153999999996	955.32196	328.05875	458.15340999999995	686.08118	115.60162999999999	194.99465999999998	764.1947	58.680669999999985	227.82610999999994	726.42426	65.47896999999999	133.35608999999994	595.69312	52.75994999999998	309.0748899999999	705.32141	46.44473999999998	341.0611599999999	655.22913	50.81323999999998	398.4857799999999	
